<svg width="85" height="10" viewBox="0 0 85 10" fill="none" xmlns="http://www.w3.org/2000/svg">
<path d="M0.758523 0.272727H3.03409L5.4375 6.13636H5.53977L7.94318 0.272727H10.2188V9H8.42898V3.3196H8.35653L6.09801 8.95739H4.87926L2.62074 3.2983H2.5483V9H0.758523V0.272727ZM19.7589 4.63636C19.7589 5.58807 19.5785 6.39773 19.2177 7.06534C18.8597 7.73295 18.3711 8.2429 17.7518 8.59517C17.1353 8.9446 16.4421 9.11932 15.6722 9.11932C14.8967 9.11932 14.2006 8.94318 13.5842 8.59091C12.9677 8.23864 12.4805 7.72869 12.1225 7.06108C11.7646 6.39347 11.5856 5.58523 11.5856 4.63636C11.5856 3.68466 11.7646 2.875 12.1225 2.20739C12.4805 1.53977 12.9677 1.03125 13.5842 0.681818C14.2006 0.329545 14.8967 0.153409 15.6722 0.153409C16.4421 0.153409 17.1353 0.329545 17.7518 0.681818C18.3711 1.03125 18.8597 1.53977 19.2177 2.20739C19.5785 2.875 19.7589 3.68466 19.7589 4.63636ZM17.8881 4.63636C17.8881 4.01989 17.7958 3.5 17.6112 3.0767C17.4293 2.65341 17.1722 2.33239 16.8398 2.11364C16.5075 1.89489 16.1183 1.78551 15.6722 1.78551C15.2262 1.78551 14.837 1.89489 14.5046 2.11364C14.1722 2.33239 13.9137 2.65341 13.729 3.0767C13.5472 3.5 13.4563 4.01989 13.4563 4.63636C13.4563 5.25284 13.5472 5.77273 13.729 6.19602C13.9137 6.61932 14.1722 6.94034 14.5046 7.15909C14.837 7.37784 15.2262 7.48722 15.6722 7.48722C16.1183 7.48722 16.5075 7.37784 16.8398 7.15909C17.1722 6.94034 17.4293 6.61932 17.6112 6.19602C17.7958 5.77273 17.8881 5.25284 17.8881 4.63636ZM20.3949 1.79403V0.272727H27.5625V1.79403H24.8906V9H23.0668V1.79403H20.3949ZM36.3643 4.63636C36.3643 5.58807 36.1839 6.39773 35.8232 7.06534C35.4652 7.73295 34.9766 8.2429 34.3572 8.59517C33.7408 8.9446 33.0476 9.11932 32.2777 9.11932C31.5021 9.11932 30.8061 8.94318 30.1896 8.59091C29.5732 8.23864 29.0859 7.72869 28.728 7.06108C28.37 6.39347 28.1911 5.58523 28.1911 4.63636C28.1911 3.68466 28.37 2.875 28.728 2.20739C29.0859 1.53977 29.5732 1.03125 30.1896 0.681818C30.8061 0.329545 31.5021 0.153409 32.2777 0.153409C33.0476 0.153409 33.7408 0.329545 34.3572 0.681818C34.9766 1.03125 35.4652 1.53977 35.8232 2.20739C36.1839 2.875 36.3643 3.68466 36.3643 4.63636ZM34.4936 4.63636C34.4936 4.01989 34.4013 3.5 34.2166 3.0767C34.0348 2.65341 33.7777 2.33239 33.4453 2.11364C33.1129 1.89489 32.7237 1.78551 32.2777 1.78551C31.8317 1.78551 31.4425 1.89489 31.1101 2.11364C30.7777 2.33239 30.5192 2.65341 30.3345 3.0767C30.1527 3.5 30.0618 4.01989 30.0618 4.63636C30.0618 5.25284 30.1527 5.77273 30.3345 6.19602C30.5192 6.61932 30.7777 6.94034 31.1101 7.15909C31.4425 7.37784 31.8317 7.48722 32.2777 7.48722C32.7237 7.48722 33.1129 7.37784 33.4453 7.15909C33.7777 6.94034 34.0348 6.61932 34.2166 6.19602C34.4013 5.77273 34.4936 5.25284 34.4936 4.63636ZM37.7312 9V0.272727H41.1744C41.8335 0.272727 42.396 0.390625 42.8619 0.62642C43.3306 0.859375 43.6871 1.19034 43.9315 1.61932C44.1786 2.04545 44.3022 2.54687 44.3022 3.12358C44.3022 3.70312 44.1772 4.2017 43.9272 4.61932C43.6772 5.03409 43.315 5.35227 42.8406 5.57386C42.369 5.79545 41.7979 5.90625 41.1275 5.90625H38.8221V4.4233H40.8292C41.1815 4.4233 41.4741 4.375 41.707 4.27841C41.94 4.18182 42.1133 4.03693 42.2269 3.84375C42.3434 3.65057 42.4016 3.41051 42.4016 3.12358C42.4016 2.83381 42.3434 2.58949 42.2269 2.39062C42.1133 2.19176 41.9386 2.04119 41.7028 1.93892C41.4698 1.83381 41.1758 1.78125 40.8207 1.78125H39.5763V9H37.7312ZM42.4442 5.02841L44.6133 9H42.5763L40.4542 5.02841H42.4442ZM53.3065 3.32812H51.44C51.4059 3.08665 51.3363 2.87216 51.2312 2.68466C51.1261 2.49432 50.9911 2.33239 50.8263 2.19886C50.6616 2.06534 50.4712 1.96307 50.2553 1.89205C50.0423 1.82102 49.8107 1.78551 49.5607 1.78551C49.109 1.78551 48.7156 1.89773 48.3803 2.12216C48.0451 2.34375 47.7852 2.66761 47.6005 3.09375C47.4158 3.51705 47.3235 4.03125 47.3235 4.63636C47.3235 5.25852 47.4158 5.78125 47.6005 6.20455C47.788 6.62784 48.0494 6.94744 48.3846 7.16335C48.7198 7.37926 49.1076 7.48722 49.5479 7.48722C49.7951 7.48722 50.0238 7.45455 50.234 7.3892C50.4471 7.32386 50.636 7.22869 50.8008 7.10369C50.9656 6.97585 51.1019 6.82102 51.2099 6.6392C51.3207 6.45739 51.3974 6.25 51.44 6.01705L53.3065 6.02557C53.2582 6.42614 53.1374 6.8125 52.9442 7.18466C52.7539 7.55398 52.4968 7.88494 52.1729 8.17756C51.8519 8.46733 51.4684 8.69744 51.0224 8.8679C50.5792 9.03551 50.0778 9.11932 49.5181 9.11932C48.7397 9.11932 48.0437 8.94318 47.43 8.59091C46.8192 8.23864 46.3363 7.72869 45.9812 7.06108C45.6289 6.39347 45.4528 5.58523 45.4528 4.63636C45.4528 3.68466 45.6317 2.875 45.9897 2.20739C46.3477 1.53977 46.8335 1.03125 47.4471 0.681818C48.0607 0.329545 48.7511 0.153409 49.5181 0.153409C50.0238 0.153409 50.4925 0.224432 50.9244 0.366477C51.359 0.508523 51.744 0.715909 52.0792 0.988636C52.4144 1.25852 52.6871 1.58949 52.8974 1.98153C53.1104 2.37358 53.2468 2.82244 53.3065 3.32812ZM54.1183 0.272727H56.185L58.1751 4.03125H58.2603L60.2504 0.272727H62.3171L59.1339 5.91477V9H57.3015V5.91477L54.1183 0.272727ZM70.4979 3.32812H68.6314C68.5973 3.08665 68.5277 2.87216 68.4226 2.68466C68.3175 2.49432 68.1825 2.33239 68.0178 2.19886C67.853 2.06534 67.6626 1.96307 67.4467 1.89205C67.2337 1.82102 67.0021 1.78551 66.7521 1.78551C66.3004 1.78551 65.907 1.89773 65.5717 2.12216C65.2365 2.34375 64.9766 2.66761 64.7919 3.09375C64.6072 3.51705 64.5149 4.03125 64.5149 4.63636C64.5149 5.25852 64.6072 5.78125 64.7919 6.20455C64.9794 6.62784 65.2408 6.94744 65.576 7.16335C65.9112 7.37926 66.299 7.48722 66.7393 7.48722C66.9865 7.48722 67.2152 7.45455 67.4254 7.3892C67.6385 7.32386 67.8274 7.22869 67.9922 7.10369C68.157 6.97585 68.2933 6.82102 68.4013 6.6392C68.5121 6.45739 68.5888 6.25 68.6314 6.01705L70.4979 6.02557C70.4496 6.42614 70.3288 6.8125 70.1357 7.18466C69.9453 7.55398 69.6882 7.88494 69.3643 8.17756C69.0433 8.46733 68.6598 8.69744 68.2138 8.8679C67.7706 9.03551 67.2692 9.11932 66.7095 9.11932C65.9311 9.11932 65.2351 8.94318 64.6214 8.59091C64.0107 8.23864 63.5277 7.72869 63.1726 7.06108C62.8203 6.39347 62.6442 5.58523 62.6442 4.63636C62.6442 3.68466 62.8232 2.875 63.1811 2.20739C63.5391 1.53977 64.0249 1.03125 64.6385 0.681818C65.2521 0.329545 65.9425 0.153409 66.7095 0.153409C67.2152 0.153409 67.6839 0.224432 68.1158 0.366477C68.5504 0.508523 68.9354 0.715909 69.2706 0.988636C69.6058 1.25852 69.8786 1.58949 70.0888 1.98153C70.3018 2.37358 70.4382 2.82244 70.4979 3.32812ZM71.821 9V0.272727H73.6662V7.47869H77.4077V9H71.821ZM78.6296 9V0.272727H84.5103V1.79403H80.4748V3.87358H84.2077V5.39489H80.4748V7.47869H84.5273V9H78.6296Z" fill="url(#paint0_linear_50_56)"/>
<path d="M0.758523 0.272727H3.03409L5.4375 6.13636H5.53977L7.94318 0.272727H10.2188V9H8.42898V3.3196H8.35653L6.09801 8.95739H4.87926L2.62074 3.2983H2.5483V9H0.758523V0.272727ZM19.7589 4.63636C19.7589 5.58807 19.5785 6.39773 19.2177 7.06534C18.8597 7.73295 18.3711 8.2429 17.7518 8.59517C17.1353 8.9446 16.4421 9.11932 15.6722 9.11932C14.8967 9.11932 14.2006 8.94318 13.5842 8.59091C12.9677 8.23864 12.4805 7.72869 12.1225 7.06108C11.7646 6.39347 11.5856 5.58523 11.5856 4.63636C11.5856 3.68466 11.7646 2.875 12.1225 2.20739C12.4805 1.53977 12.9677 1.03125 13.5842 0.681818C14.2006 0.329545 14.8967 0.153409 15.6722 0.153409C16.4421 0.153409 17.1353 0.329545 17.7518 0.681818C18.3711 1.03125 18.8597 1.53977 19.2177 2.20739C19.5785 2.875 19.7589 3.68466 19.7589 4.63636ZM17.8881 4.63636C17.8881 4.01989 17.7958 3.5 17.6112 3.0767C17.4293 2.65341 17.1722 2.33239 16.8398 2.11364C16.5075 1.89489 16.1183 1.78551 15.6722 1.78551C15.2262 1.78551 14.837 1.89489 14.5046 2.11364C14.1722 2.33239 13.9137 2.65341 13.729 3.0767C13.5472 3.5 13.4563 4.01989 13.4563 4.63636C13.4563 5.25284 13.5472 5.77273 13.729 6.19602C13.9137 6.61932 14.1722 6.94034 14.5046 7.15909C14.837 7.37784 15.2262 7.48722 15.6722 7.48722C16.1183 7.48722 16.5075 7.37784 16.8398 7.15909C17.1722 6.94034 17.4293 6.61932 17.6112 6.19602C17.7958 5.77273 17.8881 5.25284 17.8881 4.63636ZM20.3949 1.79403V0.272727H27.5625V1.79403H24.8906V9H23.0668V1.79403H20.3949ZM36.3643 4.63636C36.3643 5.58807 36.1839 6.39773 35.8232 7.06534C35.4652 7.73295 34.9766 8.2429 34.3572 8.59517C33.7408 8.9446 33.0476 9.11932 32.2777 9.11932C31.5021 9.11932 30.8061 8.94318 30.1896 8.59091C29.5732 8.23864 29.0859 7.72869 28.728 7.06108C28.37 6.39347 28.1911 5.58523 28.1911 4.63636C28.1911 3.68466 28.37 2.875 28.728 2.20739C29.0859 1.53977 29.5732 1.03125 30.1896 0.681818C30.8061 0.329545 31.5021 0.153409 32.2777 0.153409C33.0476 0.153409 33.7408 0.329545 34.3572 0.681818C34.9766 1.03125 35.4652 1.53977 35.8232 2.20739C36.1839 2.875 36.3643 3.68466 36.3643 4.63636ZM34.4936 4.63636C34.4936 4.01989 34.4013 3.5 34.2166 3.0767C34.0348 2.65341 33.7777 2.33239 33.4453 2.11364C33.1129 1.89489 32.7237 1.78551 32.2777 1.78551C31.8317 1.78551 31.4425 1.89489 31.1101 2.11364C30.7777 2.33239 30.5192 2.65341 30.3345 3.0767C30.1527 3.5 30.0618 4.01989 30.0618 4.63636C30.0618 5.25284 30.1527 5.77273 30.3345 6.19602C30.5192 6.61932 30.7777 6.94034 31.1101 7.15909C31.4425 7.37784 31.8317 7.48722 32.2777 7.48722C32.7237 7.48722 33.1129 7.37784 33.4453 7.15909C33.7777 6.94034 34.0348 6.61932 34.2166 6.19602C34.4013 5.77273 34.4936 5.25284 34.4936 4.63636ZM37.7312 9V0.272727H41.1744C41.8335 0.272727 42.396 0.390625 42.8619 0.62642C43.3306 0.859375 43.6871 1.19034 43.9315 1.61932C44.1786 2.04545 44.3022 2.54687 44.3022 3.12358C44.3022 3.70312 44.1772 4.2017 43.9272 4.61932C43.6772 5.03409 43.315 5.35227 42.8406 5.57386C42.369 5.79545 41.7979 5.90625 41.1275 5.90625H38.8221V4.4233H40.8292C41.1815 4.4233 41.4741 4.375 41.707 4.27841C41.94 4.18182 42.1133 4.03693 42.2269 3.84375C42.3434 3.65057 42.4016 3.41051 42.4016 3.12358C42.4016 2.83381 42.3434 2.58949 42.2269 2.39062C42.1133 2.19176 41.9386 2.04119 41.7028 1.93892C41.4698 1.83381 41.1758 1.78125 40.8207 1.78125H39.5763V9H37.7312ZM42.4442 5.02841L44.6133 9H42.5763L40.4542 5.02841H42.4442ZM53.3065 3.32812H51.44C51.4059 3.08665 51.3363 2.87216 51.2312 2.68466C51.1261 2.49432 50.9911 2.33239 50.8263 2.19886C50.6616 2.06534 50.4712 1.96307 50.2553 1.89205C50.0423 1.82102 49.8107 1.78551 49.5607 1.78551C49.109 1.78551 48.7156 1.89773 48.3803 2.12216C48.0451 2.34375 47.7852 2.66761 47.6005 3.09375C47.4158 3.51705 47.3235 4.03125 47.3235 4.63636C47.3235 5.25852 47.4158 5.78125 47.6005 6.20455C47.788 6.62784 48.0494 6.94744 48.3846 7.16335C48.7198 7.37926 49.1076 7.48722 49.5479 7.48722C49.7951 7.48722 50.0238 7.45455 50.234 7.3892C50.4471 7.32386 50.636 7.22869 50.8008 7.10369C50.9656 6.97585 51.1019 6.82102 51.2099 6.6392C51.3207 6.45739 51.3974 6.25 51.44 6.01705L53.3065 6.02557C53.2582 6.42614 53.1374 6.8125 52.9442 7.18466C52.7539 7.55398 52.4968 7.88494 52.1729 8.17756C51.8519 8.46733 51.4684 8.69744 51.0224 8.8679C50.5792 9.03551 50.0778 9.11932 49.5181 9.11932C48.7397 9.11932 48.0437 8.94318 47.43 8.59091C46.8192 8.23864 46.3363 7.72869 45.9812 7.06108C45.6289 6.39347 45.4528 5.58523 45.4528 4.63636C45.4528 3.68466 45.6317 2.875 45.9897 2.20739C46.3477 1.53977 46.8335 1.03125 47.4471 0.681818C48.0607 0.329545 48.7511 0.153409 49.5181 0.153409C50.0238 0.153409 50.4925 0.224432 50.9244 0.366477C51.359 0.508523 51.744 0.715909 52.0792 0.988636C52.4144 1.25852 52.6871 1.58949 52.8974 1.98153C53.1104 2.37358 53.2468 2.82244 53.3065 3.32812ZM54.1183 0.272727H56.185L58.1751 4.03125H58.2603L60.2504 0.272727H62.3171L59.1339 5.91477V9H57.3015V5.91477L54.1183 0.272727ZM70.4979 3.32812H68.6314C68.5973 3.08665 68.5277 2.87216 68.4226 2.68466C68.3175 2.49432 68.1825 2.33239 68.0178 2.19886C67.853 2.06534 67.6626 1.96307 67.4467 1.89205C67.2337 1.82102 67.0021 1.78551 66.7521 1.78551C66.3004 1.78551 65.907 1.89773 65.5717 2.12216C65.2365 2.34375 64.9766 2.66761 64.7919 3.09375C64.6072 3.51705 64.5149 4.03125 64.5149 4.63636C64.5149 5.25852 64.6072 5.78125 64.7919 6.20455C64.9794 6.62784 65.2408 6.94744 65.576 7.16335C65.9112 7.37926 66.299 7.48722 66.7393 7.48722C66.9865 7.48722 67.2152 7.45455 67.4254 7.3892C67.6385 7.32386 67.8274 7.22869 67.9922 7.10369C68.157 6.97585 68.2933 6.82102 68.4013 6.6392C68.5121 6.45739 68.5888 6.25 68.6314 6.01705L70.4979 6.02557C70.4496 6.42614 70.3288 6.8125 70.1357 7.18466C69.9453 7.55398 69.6882 7.88494 69.3643 8.17756C69.0433 8.46733 68.6598 8.69744 68.2138 8.8679C67.7706 9.03551 67.2692 9.11932 66.7095 9.11932C65.9311 9.11932 65.2351 8.94318 64.6214 8.59091C64.0107 8.23864 63.5277 7.72869 63.1726 7.06108C62.8203 6.39347 62.6442 5.58523 62.6442 4.63636C62.6442 3.68466 62.8232 2.875 63.1811 2.20739C63.5391 1.53977 64.0249 1.03125 64.6385 0.681818C65.2521 0.329545 65.9425 0.153409 66.7095 0.153409C67.2152 0.153409 67.6839 0.224432 68.1158 0.366477C68.5504 0.508523 68.9354 0.715909 69.2706 0.988636C69.6058 1.25852 69.8786 1.58949 70.0888 1.98153C70.3018 2.37358 70.4382 2.82244 70.4979 3.32812ZM71.821 9V0.272727H73.6662V7.47869H77.4077V9H71.821ZM78.6296 9V0.272727H84.5103V1.79403H80.4748V3.87358H84.2077V5.39489H80.4748V7.47869H84.5273V9H78.6296Z" fill="url(#paint1_linear_50_56)"/>
<defs>
<linearGradient id="paint0_linear_50_56" x1="43" y1="-3" x2="43" y2="12" gradientUnits="userSpaceOnUse">
<stop/>
<stop offset="1" stop-opacity="0"/>
</linearGradient>
<linearGradient id="paint1_linear_50_56" x1="-72.5625" y1="-8.41667" x2="-53.9611" y2="55.1527" gradientUnits="userSpaceOnUse">
<stop stop-color="#FF0000"/>
<stop offset="0.784375" stop-color="#FF7A1A"/>
</linearGradient>
</defs>
</svg>
