<svg width="80" height="72" viewBox="0 0 80 72" fill="none" xmlns="http://www.w3.org/2000/svg">
<path d="M68 24C68 19.6 64.4 16 60 16H52C49.8 16 48 17.8 48 20C48 22.2 49.8 24 52 24H60V34.6L46.08 52H32V36C32 33.8 30.2 32 28 32H16C7.16 32 0 39.16 0 48V60H8C8 66.64 13.36 72 20 72C26.64 72 32 66.64 32 60H49.92L68 37.4V24ZM20 64C17.8 64 16 62.2 16 60H24C24 62.2 22.2 64 20 64Z" fill="white"/>
<path d="M28 20H16C13.8 20 12 21.8 12 24C12 26.2 13.8 28 16 28H28C30.2 28 32 26.2 32 24C32 21.8 30.2 20 28 20Z" fill="white"/>
<path d="M68 48C61.36 48 56 53.36 56 60C56 66.64 61.36 72 68 72C74.64 72 80 66.64 80 60C80 53.36 74.64 48 68 48ZM68 64C65.8 64 64 62.2 64 60C64 57.8 65.8 56 68 56C70.2 56 72 57.8 72 60C72 62.2 70.2 64 68 64Z" fill="white"/>
<path d="M16 8H32V0L56 12H40V20L16 8Z" fill="white"/>
</svg>
