<svg width="86" height="87" viewBox="0 0 86 87" fill="none" xmlns="http://www.w3.org/2000/svg">
<path d="M71 24C71 19.6 67.4 16 63 16H55C52.8 16 51 17.8 51 20C51 22.2 52.8 24 55 24H63V34.6L49.08 52H35V36C35 33.8 33.2 32 31 32H19C10.16 32 3 39.16 3 48V60H11C11 66.64 16.36 72 23 72C29.64 72 35 66.64 35 60H52.92L71 37.4V24ZM23 64C20.8 64 19 62.2 19 60H27C27 62.2 25.2 64 23 64Z" fill="white"/>
<path d="M31 20H19C16.8 20 15 21.8 15 24C15 26.2 16.8 28 19 28H31C33.2 28 35 26.2 35 24C35 21.8 33.2 20 31 20Z" fill="white"/>
<path d="M71 48C64.36 48 59 53.36 59 60C59 66.64 64.36 72 71 72C77.64 72 83 66.64 83 60C83 53.36 77.64 48 71 48ZM71 64C68.8 64 67 62.2 67 60C67 57.8 68.8 56 71 56C73.2 56 75 57.8 75 60C75 62.2 73.2 64 71 64Z" fill="white"/>
<path d="M19 8H35V0L59 12H43V20L19 8Z" fill="white"/>
<path d="M0.758523 75.2727H3.03409L5.4375 81.1364H5.53977L7.94318 75.2727H10.2188V84H8.42898V78.3196H8.35653L6.09801 83.9574H4.87926L2.62074 78.2983H2.5483V84H0.758523V75.2727ZM19.7589 79.6364C19.7589 80.5881 19.5785 81.3977 19.2177 82.0653C18.8597 82.733 18.3711 83.2429 17.7518 83.5952C17.1353 83.9446 16.4421 84.1193 15.6722 84.1193C14.8967 84.1193 14.2006 83.9432 13.5842 83.5909C12.9677 83.2386 12.4805 82.7287 12.1225 82.0611C11.7646 81.3935 11.5856 80.5852 11.5856 79.6364C11.5856 78.6847 11.7646 77.875 12.1225 77.2074C12.4805 76.5398 12.9677 76.0312 13.5842 75.6818C14.2006 75.3295 14.8967 75.1534 15.6722 75.1534C16.4421 75.1534 17.1353 75.3295 17.7518 75.6818C18.3711 76.0312 18.8597 76.5398 19.2177 77.2074C19.5785 77.875 19.7589 78.6847 19.7589 79.6364ZM17.8881 79.6364C17.8881 79.0199 17.7958 78.5 17.6112 78.0767C17.4293 77.6534 17.1722 77.3324 16.8398 77.1136C16.5075 76.8949 16.1183 76.7855 15.6722 76.7855C15.2262 76.7855 14.837 76.8949 14.5046 77.1136C14.1722 77.3324 13.9137 77.6534 13.729 78.0767C13.5472 78.5 13.4563 79.0199 13.4563 79.6364C13.4563 80.2528 13.5472 80.7727 13.729 81.196C13.9137 81.6193 14.1722 81.9403 14.5046 82.1591C14.837 82.3778 15.2262 82.4872 15.6722 82.4872C16.1183 82.4872 16.5075 82.3778 16.8398 82.1591C17.1722 81.9403 17.4293 81.6193 17.6112 81.196C17.7958 80.7727 17.8881 80.2528 17.8881 79.6364ZM20.3949 76.794V75.2727H27.5625V76.794H24.8906V84H23.0668V76.794H20.3949ZM36.3643 79.6364C36.3643 80.5881 36.1839 81.3977 35.8232 82.0653C35.4652 82.733 34.9766 83.2429 34.3572 83.5952C33.7408 83.9446 33.0476 84.1193 32.2777 84.1193C31.5021 84.1193 30.8061 83.9432 30.1896 83.5909C29.5732 83.2386 29.0859 82.7287 28.728 82.0611C28.37 81.3935 28.1911 80.5852 28.1911 79.6364C28.1911 78.6847 28.37 77.875 28.728 77.2074C29.0859 76.5398 29.5732 76.0312 30.1896 75.6818C30.8061 75.3295 31.5021 75.1534 32.2777 75.1534C33.0476 75.1534 33.7408 75.3295 34.3572 75.6818C34.9766 76.0312 35.4652 76.5398 35.8232 77.2074C36.1839 77.875 36.3643 78.6847 36.3643 79.6364ZM34.4936 79.6364C34.4936 79.0199 34.4013 78.5 34.2166 78.0767C34.0348 77.6534 33.7777 77.3324 33.4453 77.1136C33.1129 76.8949 32.7237 76.7855 32.2777 76.7855C31.8317 76.7855 31.4425 76.8949 31.1101 77.1136C30.7777 77.3324 30.5192 77.6534 30.3345 78.0767C30.1527 78.5 30.0618 79.0199 30.0618 79.6364C30.0618 80.2528 30.1527 80.7727 30.3345 81.196C30.5192 81.6193 30.7777 81.9403 31.1101 82.1591C31.4425 82.3778 31.8317 82.4872 32.2777 82.4872C32.7237 82.4872 33.1129 82.3778 33.4453 82.1591C33.7777 81.9403 34.0348 81.6193 34.2166 81.196C34.4013 80.7727 34.4936 80.2528 34.4936 79.6364ZM37.7312 84V75.2727H41.1744C41.8335 75.2727 42.396 75.3906 42.8619 75.6264C43.3306 75.8594 43.6871 76.1903 43.9315 76.6193C44.1786 77.0455 44.3022 77.5469 44.3022 78.1236C44.3022 78.7031 44.1772 79.2017 43.9272 79.6193C43.6772 80.0341 43.315 80.3523 42.8406 80.5739C42.369 80.7955 41.7979 80.9062 41.1275 80.9062H38.8221V79.4233H40.8292C41.1815 79.4233 41.4741 79.375 41.707 79.2784C41.94 79.1818 42.1133 79.0369 42.2269 78.8438C42.3434 78.6506 42.4016 78.4105 42.4016 78.1236C42.4016 77.8338 42.3434 77.5895 42.2269 77.3906C42.1133 77.1918 41.9386 77.0412 41.7028 76.9389C41.4698 76.8338 41.1758 76.7812 40.8207 76.7812H39.5763V84H37.7312ZM42.4442 80.0284L44.6133 84H42.5763L40.4542 80.0284H42.4442ZM53.3065 78.3281H51.44C51.4059 78.0866 51.3363 77.8722 51.2312 77.6847C51.1261 77.4943 50.9911 77.3324 50.8263 77.1989C50.6616 77.0653 50.4712 76.9631 50.2553 76.892C50.0423 76.821 49.8107 76.7855 49.5607 76.7855C49.109 76.7855 48.7156 76.8977 48.3803 77.1222C48.0451 77.3437 47.7852 77.6676 47.6005 78.0938C47.4158 78.517 47.3235 79.0312 47.3235 79.6364C47.3235 80.2585 47.4158 80.7812 47.6005 81.2045C47.788 81.6278 48.0494 81.9474 48.3846 82.1634C48.7198 82.3793 49.1076 82.4872 49.5479 82.4872C49.7951 82.4872 50.0238 82.4545 50.234 82.3892C50.4471 82.3239 50.636 82.2287 50.8008 82.1037C50.9656 81.9759 51.1019 81.821 51.2099 81.6392C51.3207 81.4574 51.3974 81.25 51.44 81.017L53.3065 81.0256C53.2582 81.4261 53.1374 81.8125 52.9442 82.1847C52.7539 82.554 52.4968 82.8849 52.1729 83.1776C51.8519 83.4673 51.4684 83.6974 51.0224 83.8679C50.5792 84.0355 50.0778 84.1193 49.5181 84.1193C48.7397 84.1193 48.0437 83.9432 47.43 83.5909C46.8192 83.2386 46.3363 82.7287 45.9812 82.0611C45.6289 81.3935 45.4528 80.5852 45.4528 79.6364C45.4528 78.6847 45.6317 77.875 45.9897 77.2074C46.3477 76.5398 46.8335 76.0312 47.4471 75.6818C48.0607 75.3295 48.7511 75.1534 49.5181 75.1534C50.0238 75.1534 50.4925 75.2244 50.9244 75.3665C51.359 75.5085 51.744 75.7159 52.0792 75.9886C52.4144 76.2585 52.6871 76.5895 52.8974 76.9815C53.1104 77.3736 53.2468 77.8224 53.3065 78.3281ZM54.1183 75.2727H56.185L58.1751 79.0312H58.2603L60.2504 75.2727H62.3171L59.1339 80.9148V84H57.3015V80.9148L54.1183 75.2727ZM70.4979 78.3281H68.6314C68.5973 78.0866 68.5277 77.8722 68.4226 77.6847C68.3175 77.4943 68.1825 77.3324 68.0178 77.1989C67.853 77.0653 67.6626 76.9631 67.4467 76.892C67.2337 76.821 67.0021 76.7855 66.7521 76.7855C66.3004 76.7855 65.907 76.8977 65.5717 77.1222C65.2365 77.3437 64.9766 77.6676 64.7919 78.0938C64.6072 78.517 64.5149 79.0312 64.5149 79.6364C64.5149 80.2585 64.6072 80.7812 64.7919 81.2045C64.9794 81.6278 65.2408 81.9474 65.576 82.1634C65.9112 82.3793 66.299 82.4872 66.7393 82.4872C66.9865 82.4872 67.2152 82.4545 67.4254 82.3892C67.6385 82.3239 67.8274 82.2287 67.9922 82.1037C68.157 81.9759 68.2933 81.821 68.4013 81.6392C68.5121 81.4574 68.5888 81.25 68.6314 81.017L70.4979 81.0256C70.4496 81.4261 70.3288 81.8125 70.1357 82.1847C69.9453 82.554 69.6882 82.8849 69.3643 83.1776C69.0433 83.4673 68.6598 83.6974 68.2138 83.8679C67.7706 84.0355 67.2692 84.1193 66.7095 84.1193C65.9311 84.1193 65.2351 83.9432 64.6214 83.5909C64.0107 83.2386 63.5277 82.7287 63.1726 82.0611C62.8203 81.3935 62.6442 80.5852 62.6442 79.6364C62.6442 78.6847 62.8232 77.875 63.1811 77.2074C63.5391 76.5398 64.0249 76.0312 64.6385 75.6818C65.2521 75.3295 65.9425 75.1534 66.7095 75.1534C67.2152 75.1534 67.6839 75.2244 68.1158 75.3665C68.5504 75.5085 68.9354 75.7159 69.2706 75.9886C69.6058 76.2585 69.8786 76.5895 70.0888 76.9815C70.3018 77.3736 70.4382 77.8224 70.4979 78.3281ZM71.821 84V75.2727H73.6662V82.4787H77.4077V84H71.821ZM78.6296 84V75.2727H84.5103V76.794H80.4748V78.8736H84.2077V80.3949H80.4748V82.4787H84.5273V84H78.6296Z" fill="url(#paint0_linear_50_35)"/>
<path d="M0.758523 75.2727H3.03409L5.4375 81.1364H5.53977L7.94318 75.2727H10.2188V84H8.42898V78.3196H8.35653L6.09801 83.9574H4.87926L2.62074 78.2983H2.5483V84H0.758523V75.2727ZM19.7589 79.6364C19.7589 80.5881 19.5785 81.3977 19.2177 82.0653C18.8597 82.733 18.3711 83.2429 17.7518 83.5952C17.1353 83.9446 16.4421 84.1193 15.6722 84.1193C14.8967 84.1193 14.2006 83.9432 13.5842 83.5909C12.9677 83.2386 12.4805 82.7287 12.1225 82.0611C11.7646 81.3935 11.5856 80.5852 11.5856 79.6364C11.5856 78.6847 11.7646 77.875 12.1225 77.2074C12.4805 76.5398 12.9677 76.0312 13.5842 75.6818C14.2006 75.3295 14.8967 75.1534 15.6722 75.1534C16.4421 75.1534 17.1353 75.3295 17.7518 75.6818C18.3711 76.0312 18.8597 76.5398 19.2177 77.2074C19.5785 77.875 19.7589 78.6847 19.7589 79.6364ZM17.8881 79.6364C17.8881 79.0199 17.7958 78.5 17.6112 78.0767C17.4293 77.6534 17.1722 77.3324 16.8398 77.1136C16.5075 76.8949 16.1183 76.7855 15.6722 76.7855C15.2262 76.7855 14.837 76.8949 14.5046 77.1136C14.1722 77.3324 13.9137 77.6534 13.729 78.0767C13.5472 78.5 13.4563 79.0199 13.4563 79.6364C13.4563 80.2528 13.5472 80.7727 13.729 81.196C13.9137 81.6193 14.1722 81.9403 14.5046 82.1591C14.837 82.3778 15.2262 82.4872 15.6722 82.4872C16.1183 82.4872 16.5075 82.3778 16.8398 82.1591C17.1722 81.9403 17.4293 81.6193 17.6112 81.196C17.7958 80.7727 17.8881 80.2528 17.8881 79.6364ZM20.3949 76.794V75.2727H27.5625V76.794H24.8906V84H23.0668V76.794H20.3949ZM36.3643 79.6364C36.3643 80.5881 36.1839 81.3977 35.8232 82.0653C35.4652 82.733 34.9766 83.2429 34.3572 83.5952C33.7408 83.9446 33.0476 84.1193 32.2777 84.1193C31.5021 84.1193 30.8061 83.9432 30.1896 83.5909C29.5732 83.2386 29.0859 82.7287 28.728 82.0611C28.37 81.3935 28.1911 80.5852 28.1911 79.6364C28.1911 78.6847 28.37 77.875 28.728 77.2074C29.0859 76.5398 29.5732 76.0312 30.1896 75.6818C30.8061 75.3295 31.5021 75.1534 32.2777 75.1534C33.0476 75.1534 33.7408 75.3295 34.3572 75.6818C34.9766 76.0312 35.4652 76.5398 35.8232 77.2074C36.1839 77.875 36.3643 78.6847 36.3643 79.6364ZM34.4936 79.6364C34.4936 79.0199 34.4013 78.5 34.2166 78.0767C34.0348 77.6534 33.7777 77.3324 33.4453 77.1136C33.1129 76.8949 32.7237 76.7855 32.2777 76.7855C31.8317 76.7855 31.4425 76.8949 31.1101 77.1136C30.7777 77.3324 30.5192 77.6534 30.3345 78.0767C30.1527 78.5 30.0618 79.0199 30.0618 79.6364C30.0618 80.2528 30.1527 80.7727 30.3345 81.196C30.5192 81.6193 30.7777 81.9403 31.1101 82.1591C31.4425 82.3778 31.8317 82.4872 32.2777 82.4872C32.7237 82.4872 33.1129 82.3778 33.4453 82.1591C33.7777 81.9403 34.0348 81.6193 34.2166 81.196C34.4013 80.7727 34.4936 80.2528 34.4936 79.6364ZM37.7312 84V75.2727H41.1744C41.8335 75.2727 42.396 75.3906 42.8619 75.6264C43.3306 75.8594 43.6871 76.1903 43.9315 76.6193C44.1786 77.0455 44.3022 77.5469 44.3022 78.1236C44.3022 78.7031 44.1772 79.2017 43.9272 79.6193C43.6772 80.0341 43.315 80.3523 42.8406 80.5739C42.369 80.7955 41.7979 80.9062 41.1275 80.9062H38.8221V79.4233H40.8292C41.1815 79.4233 41.4741 79.375 41.707 79.2784C41.94 79.1818 42.1133 79.0369 42.2269 78.8438C42.3434 78.6506 42.4016 78.4105 42.4016 78.1236C42.4016 77.8338 42.3434 77.5895 42.2269 77.3906C42.1133 77.1918 41.9386 77.0412 41.7028 76.9389C41.4698 76.8338 41.1758 76.7812 40.8207 76.7812H39.5763V84H37.7312ZM42.4442 80.0284L44.6133 84H42.5763L40.4542 80.0284H42.4442ZM53.3065 78.3281H51.44C51.4059 78.0866 51.3363 77.8722 51.2312 77.6847C51.1261 77.4943 50.9911 77.3324 50.8263 77.1989C50.6616 77.0653 50.4712 76.9631 50.2553 76.892C50.0423 76.821 49.8107 76.7855 49.5607 76.7855C49.109 76.7855 48.7156 76.8977 48.3803 77.1222C48.0451 77.3437 47.7852 77.6676 47.6005 78.0938C47.4158 78.517 47.3235 79.0312 47.3235 79.6364C47.3235 80.2585 47.4158 80.7812 47.6005 81.2045C47.788 81.6278 48.0494 81.9474 48.3846 82.1634C48.7198 82.3793 49.1076 82.4872 49.5479 82.4872C49.7951 82.4872 50.0238 82.4545 50.234 82.3892C50.4471 82.3239 50.636 82.2287 50.8008 82.1037C50.9656 81.9759 51.1019 81.821 51.2099 81.6392C51.3207 81.4574 51.3974 81.25 51.44 81.017L53.3065 81.0256C53.2582 81.4261 53.1374 81.8125 52.9442 82.1847C52.7539 82.554 52.4968 82.8849 52.1729 83.1776C51.8519 83.4673 51.4684 83.6974 51.0224 83.8679C50.5792 84.0355 50.0778 84.1193 49.5181 84.1193C48.7397 84.1193 48.0437 83.9432 47.43 83.5909C46.8192 83.2386 46.3363 82.7287 45.9812 82.0611C45.6289 81.3935 45.4528 80.5852 45.4528 79.6364C45.4528 78.6847 45.6317 77.875 45.9897 77.2074C46.3477 76.5398 46.8335 76.0312 47.4471 75.6818C48.0607 75.3295 48.7511 75.1534 49.5181 75.1534C50.0238 75.1534 50.4925 75.2244 50.9244 75.3665C51.359 75.5085 51.744 75.7159 52.0792 75.9886C52.4144 76.2585 52.6871 76.5895 52.8974 76.9815C53.1104 77.3736 53.2468 77.8224 53.3065 78.3281ZM54.1183 75.2727H56.185L58.1751 79.0312H58.2603L60.2504 75.2727H62.3171L59.1339 80.9148V84H57.3015V80.9148L54.1183 75.2727ZM70.4979 78.3281H68.6314C68.5973 78.0866 68.5277 77.8722 68.4226 77.6847C68.3175 77.4943 68.1825 77.3324 68.0178 77.1989C67.853 77.0653 67.6626 76.9631 67.4467 76.892C67.2337 76.821 67.0021 76.7855 66.7521 76.7855C66.3004 76.7855 65.907 76.8977 65.5717 77.1222C65.2365 77.3437 64.9766 77.6676 64.7919 78.0938C64.6072 78.517 64.5149 79.0312 64.5149 79.6364C64.5149 80.2585 64.6072 80.7812 64.7919 81.2045C64.9794 81.6278 65.2408 81.9474 65.576 82.1634C65.9112 82.3793 66.299 82.4872 66.7393 82.4872C66.9865 82.4872 67.2152 82.4545 67.4254 82.3892C67.6385 82.3239 67.8274 82.2287 67.9922 82.1037C68.157 81.9759 68.2933 81.821 68.4013 81.6392C68.5121 81.4574 68.5888 81.25 68.6314 81.017L70.4979 81.0256C70.4496 81.4261 70.3288 81.8125 70.1357 82.1847C69.9453 82.554 69.6882 82.8849 69.3643 83.1776C69.0433 83.4673 68.6598 83.6974 68.2138 83.8679C67.7706 84.0355 67.2692 84.1193 66.7095 84.1193C65.9311 84.1193 65.2351 83.9432 64.6214 83.5909C64.0107 83.2386 63.5277 82.7287 63.1726 82.0611C62.8203 81.3935 62.6442 80.5852 62.6442 79.6364C62.6442 78.6847 62.8232 77.875 63.1811 77.2074C63.5391 76.5398 64.0249 76.0312 64.6385 75.6818C65.2521 75.3295 65.9425 75.1534 66.7095 75.1534C67.2152 75.1534 67.6839 75.2244 68.1158 75.3665C68.5504 75.5085 68.9354 75.7159 69.2706 75.9886C69.6058 76.2585 69.8786 76.5895 70.0888 76.9815C70.3018 77.3736 70.4382 77.8224 70.4979 78.3281ZM71.821 84V75.2727H73.6662V82.4787H77.4077V84H71.821ZM78.6296 84V75.2727H84.5103V76.794H80.4748V78.8736H84.2077V80.3949H80.4748V82.4787H84.5273V84H78.6296Z" fill="white"/>
<defs>
<linearGradient id="paint0_linear_50_35" x1="43" y1="72" x2="43" y2="87" gradientUnits="userSpaceOnUse">
<stop/>
<stop offset="1" stop-opacity="0"/>
</linearGradient>
</defs>
</svg>
